<?xml version="1.0" encoding="UTF-8" standalone="no"?>
<svg
  xmlns:svg="http://www.w3.org/2000/svg"
  xmlns="http://www.w3.org/2000/svg"
  version="1.0"
  fill="#e4e6eb"
  width="63"
  height="95"
  viewBox="-30 -30 300 390.65625"
  id="svg2">
  <defs
    id="defs9" />
  <path
    d="M 24.21875,296.89062 C 24.21875,292.04688 20.53125,275.82812 13.1875,248.20312 C 7.078125,225.78125 4.03125,210.71875 4.03125,203 C 4.03125,185.0625 14.4375,163.8125 35.25,139.23438 C 36.3125,137.98438 37.484375,136.64062 38.75,135.20312 C 34.078125,134.3125 28.609375,130.54688 22.328125,123.90625 C 7.4375,108.48438 0,86.421875 0,57.71875 C 0,42.296875 4.5625,28.578125 13.71875,16.546875 C 19.625,8.671875 25.546875,4.71875 31.484375,4.71875 L 32.5625,4.71875 C 33.453125,4.71875 33.984375,6.34375 34.171875,9.5625 C 34.515625,15.484375 35.5,21.40625 37.125,27.3125 C 42.140625,47.21875 64.375,73.59375 103.84375,106.40625 C 123.03125,122.375 136.84375,132.60938 145.28125,137.07812 C 146,137.45312 146.4375,137.625 146.625,137.625 L 174.875,98.34375 C 172.90625,98.34375 167.07812,94.3125 157.39062,86.234375 C 138.54688,70.640625 129.14062,57.453125 129.14062,46.6875 C 129.14062,36.65625 133.53125,26.609375 142.32812,16.546875 C 150.03125,7.578125 157.5625,3.09375 164.92188,3.09375 C 167.25,3.09375 168.42188,4.359375 168.42188,6.859375 L 168.15625,11.4375 L 168.15625,14.671875 C 168.15625,24 175.23438,33.5 189.40625,43.1875 L 225.45312,65.78125 C 243.92188,79.96875 253.4375,94.3125 253.98438,108.82812 C 253.98438,125.70312 246.98438,140.59375 232.98438,153.5 C 225.09375,160.85938 218.54688,164.53125 213.35938,164.53125 C 212.64062,164.53125 211.5625,160.85938 210.125,153.5 C 209.21875,148.29688 208.23438,143.35938 207.15625,138.70312 C 203.9375,123.8125 197.125,113.14062 186.71875,106.6875 L 185.10938,105.60938 L 158.20312,148.10938 C 159.98438,148.10938 166.71875,152.15625 178.375,160.21875 C 208.85938,181.21875 230.46875,204 243.21875,228.5625 C 250.39062,242.5625 253.98438,256.45312 253.98438,270.26562 C 253.98438,304.17188 248.14062,323 236.48438,326.76562 C 234.51562,327.29688 232.26562,327.5625 229.76562,327.5625 L 226,327.5625 C 225.8125,327.5625 225.1875,324.25 224.10938,317.60938 C 220.875,293.76562 209.57812,274.29688 190.21875,259.23438 C 166.35938,241.48438 125.1875,208.03125 66.71875,158.875 C 53.984375,148.29687 47.34375,143 46.8125,143 L 40.09375,148.375 C 31.125,157.17188 26.640625,166.95312 26.640625,177.70312 C 26.640625,189.1875 34.078125,203.625 48.96875,221.03125 L 76.140625,251.6875 C 89.765625,268.375 96.59375,283 96.59375,295.54688 C 96.59375,307.57812 89.859375,316.625 76.40625,322.71875 C 79.453125,321.28125 75.515625,322.90625 64.578125,327.5625 L 1.078125,327.5625 L 5.375,319.76562 C 5.734375,319.59375 6.546875,319.5 7.796875,319.5 C 14.421875,318.96875 18.828125,317.07812 20.984375,313.84375 C 23.140625,310.625 24.21875,304.96875 24.21875,296.89062 z"
    id="path4" />
  <!--<path
    d="M 667.02344,84.484375 C 667.02344,115.70312 655.36719,146.01562 632.05469,175.42188 C 619.67969,191.20312 605.58594,204.39062 589.80469,214.96875 L 671.33594,330.65625 L 615.10156,330.65625 L 489.46094,151.46875 C 480.30469,157.9375 474.47656,163.14062 471.97656,167.07812 C 457.08594,186.26562 447.57031,200.07812 443.44531,208.51562 C 437.69531,220.71875 434.83594,235.51562 434.83594,252.90625 L 434.83594,330.65625 L 386.96094,330.65625 L 386.96094,251.28125 C 386.96094,218.10938 398.42969,186.45312 421.39844,156.3125 C 433.77344,140 448.02344,126.45312 464.16406,115.6875 L 382.64844,0 L 438.88281,0 L 564.52344,179.1875 C 574.02344,172.1875 579.85156,166.98438 582.00781,163.57812 C 596.35156,145.29688 605.24219,133 608.64844,126.71875 C 615.46094,114.53125 618.86719,99.8125 618.86719,82.59375 L 618.86719,0 L 667.02344,0 L 667.02344,84.484375 L 667.02344,84.484375 z"
    id="path6" />-->
</svg>
